# xmcd
#
# Track frame offsets: 
#        150
#        22607
#        40350
#        49650
#        63633
#        91500
#        113190
#        131955
#        152818
#        177575
#        191743
#        213398
#        226688
#        237863
#        251288
#        266760
#        286155
#        301755
#        315300
#
# Disc length: 4438 seconds
#
# Revision: 2
# Processed by: cddbd v1.5.2PL0 Copyright (c) Steve Scherf et al.
# Submitted via: ExactAudioCopy v0.99pb5
#
DISCID=fa115413
DTITLE=Clifton Chenier - Live! At the Long Beach and San Francisco Blu
DTITLE=es Festivals
DYEAR=1900
DGENRE=Zydeco
TTITLE0=Introduction and Theme by Band
TTITLE1=I've Had My Fun
TTITLE2=Zydeco Two-Step
TTITLE3=Calinda
TTITLE4=What'd I Say?
TTITLE5=Party Down
TTITLE6=I'm Coming Home
TTITLE7=Pinetop's Boggie Woogie
TTITLE8=They Call Me Crazy
TTITLE9=Zydeco Cha Cha
TTITLE10=You Gonna Miss Me
TTITLE11=Caledonia
TTITLE12=New Orleans Beat
TTITLE13=Clifton's Zydeco
TTITLE14=Let The Good Times Roll
TTITLE15=Rock Me
TTITLE16=Louisiana Two-Step
TTITLE17=Cher Catin
TTITLE18=I'm The Zydeco Man
EXTD=
EXTT0=
EXTT1=
EXTT2=
EXTT3=
EXTT4=
EXTT5=
EXTT6=
EXTT7=
EXTT8=
EXTT9=
EXTT10=
EXTT11=
EXTT12=
EXTT13=
EXTT14=
EXTT15=
EXTT16=
EXTT17=
EXTT18=
PLAYORDER=
